<svg xmlns="http://www.w3.org/2000/svg" width="24" height="24" viewBox="0 0 24 24" fill="#bbb" role="img" class="icon ">
  <path fill-rule="evenodd" clip-rule="evenodd" d="M17.9274 9.96369C17.9274 14.3619 14.3619 17.9274 9.96369 17.9274C5.56546 17.9274 2 14.3619 2 9.96369C2 5.56546 5.56546 2 9.96369 2C14.3619 2 17.9274 5.56546 17.9274 9.96369ZM15.8427 18.0089C14.1948 19.2152 12.1624 19.9274 9.96369 19.9274C4.46089 19.9274 0 15.4665 0 9.96369C0 4.46089 4.46089 0 9.96369 0C15.4665 0 19.9274 4.46089 19.9274 9.96369C19.9274 12.1901 19.1972 14.2459 17.9631 15.9047C17.997 15.9331 18.0298 15.9631 18.0616 15.9949L22.9403 20.8736C23.5261 21.4594 23.5261 22.4092 22.9403 22.9949C22.3545 23.5807 21.4048 23.5807 20.819 22.9949L15.9403 18.1163C15.9057 18.0817 15.8732 18.0459 15.8427 18.0089Z"></path>
</svg>
